<svg width="240" height="72" viewBox="0 0 240 72" fill="none" xmlns="http://www.w3.org/2000/svg">
    <path d="M229.476 62.8864C226.845 62.8864 224.491 62.3209 222.412 61.1898C220.365 60.0586 218.758 58.5074 217.588 56.536C216.419 54.5646 215.834 52.3024 215.834 49.7493C215.834 47.1962 216.419 44.934 217.588 42.9626C218.758 40.9912 220.365 39.4562 222.412 38.3574C224.491 37.2262 226.845 36.6607 229.476 36.6607C231.815 36.6607 233.894 37.1293 235.713 38.0665C237.564 38.9714 238.993 40.3287 240 42.1385L236.443 44.4169C235.599 43.1565 234.559 42.2355 233.325 41.6537C232.123 41.0397 230.824 40.7327 229.428 40.7327C227.739 40.7327 226.228 41.1043 224.897 41.8477C223.565 42.591 222.509 43.6413 221.73 44.9986C220.95 46.3236 220.56 47.9072 220.56 49.7493C220.56 51.5914 220.95 53.1911 221.73 54.5485C222.509 55.9058 223.565 56.9561 224.897 57.6995C226.228 58.4428 227.739 58.8144 229.428 58.8144C230.824 58.8144 232.123 58.5236 233.325 57.9418C234.559 57.3278 235.599 56.3906 236.443 55.1302L240 57.3601C238.993 59.1376 237.564 60.5111 235.713 61.4806C233.894 62.4178 231.815 62.8864 229.476 62.8864Z"
          fill="#FFCC00"/>
    <path d="M202.023 62.8864C199.392 62.8864 197.038 62.3209 194.959 61.1898C192.913 60.0586 191.305 58.5074 190.136 56.536C188.966 54.5646 188.382 52.3024 188.382 49.7493C188.382 47.1962 188.966 44.934 190.136 42.9626C191.305 40.9912 192.913 39.4562 194.959 38.3574C197.038 37.2262 199.392 36.6607 202.023 36.6607C204.362 36.6607 206.441 37.1293 208.26 38.0665C210.111 38.9714 211.54 40.3287 212.547 42.1385L208.99 44.4169C208.146 43.1565 207.107 42.2355 205.872 41.6537C204.671 41.0397 203.371 40.7327 201.975 40.7327C200.286 40.7327 198.775 41.1043 197.444 41.8477C196.112 42.591 195.056 43.6413 194.277 44.9986C193.497 46.3236 193.108 47.9072 193.108 49.7493C193.108 51.5914 193.497 53.1911 194.277 54.5485C195.056 55.9058 196.112 56.9561 197.444 57.6995C198.775 58.4428 200.286 58.8144 201.975 58.8144C203.371 58.8144 204.671 58.5236 205.872 57.9418C207.107 57.3278 208.146 56.3906 208.99 55.1302L212.547 57.3601C211.54 59.1376 210.111 60.5111 208.26 61.4806C206.441 62.4178 204.362 62.8864 202.023 62.8864Z"
          fill="#FFCC00"/>
    <path d="M171.674 62.8864C168.913 62.8864 166.477 62.3209 164.366 61.1898C162.287 60.0586 160.663 58.5074 159.494 56.536C158.357 54.5646 157.788 52.3024 157.788 49.7493C157.788 47.1962 158.341 44.934 159.445 42.9626C160.582 40.9912 162.124 39.4562 164.073 38.3574C166.055 37.2262 168.28 36.6607 170.748 36.6607C173.249 36.6607 175.458 37.2101 177.374 38.3089C179.29 39.4077 180.784 40.9589 181.856 42.9626C182.961 44.934 183.513 47.2447 183.513 49.8947C183.513 50.0887 183.497 50.3149 183.464 50.5734C183.464 50.832 183.448 51.0743 183.415 51.3006H161.442V47.9557H180.979L179.079 49.1191C179.112 47.4709 178.771 46.0005 178.056 44.7078C177.342 43.4151 176.351 42.4132 175.084 41.7022C173.85 40.9589 172.405 40.5873 170.748 40.5873C169.124 40.5873 167.679 40.9589 166.412 41.7022C165.145 42.4132 164.155 43.4312 163.44 44.7562C162.725 46.0489 162.368 47.5356 162.368 49.2161V49.9917C162.368 51.7045 162.758 53.2396 163.537 54.597C164.349 55.922 165.47 56.9561 166.899 57.6995C168.328 58.4428 169.969 58.8144 171.82 58.8144C173.346 58.8144 174.727 58.5559 175.961 58.0388C177.228 57.5217 178.332 56.7461 179.274 55.7119L181.856 58.7175C180.687 60.0748 179.225 61.109 177.471 61.82C175.75 62.5309 173.817 62.8864 171.674 62.8864Z"
          fill="#FFCC00"/>
    <path d="M140.323 62.8864C138.18 62.8864 136.215 62.4017 134.428 61.4321C132.674 60.4303 131.261 58.9598 130.189 57.0208C129.15 55.0817 128.63 52.6579 128.63 49.7493C128.63 46.8407 129.134 44.4169 130.141 42.4778C131.18 40.5388 132.577 39.0845 134.331 38.115C136.117 37.1454 138.115 36.6607 140.323 36.6607C142.857 36.6607 145.098 37.2101 147.047 38.3089C148.996 39.4077 150.538 40.9428 151.675 42.9141C152.812 44.8532 153.38 47.1316 153.38 49.7493C153.38 52.367 152.812 54.6616 151.675 56.633C150.538 58.6043 148.996 60.1394 147.047 61.2382C145.098 62.337 142.857 62.8864 140.323 62.8864ZM126.633 72V36.9031H131.115V43.8352L130.823 49.7978L131.31 55.7604V72H126.633ZM139.934 58.8144C141.59 58.8144 143.068 58.4428 144.367 57.6995C145.699 56.9561 146.738 55.9058 147.485 54.5485C148.265 53.1588 148.655 51.5591 148.655 49.7493C148.655 47.9072 148.265 46.3236 147.485 44.9986C146.738 43.6413 145.699 42.591 144.367 41.8477C143.068 41.1043 141.59 40.7327 139.934 40.7327C138.31 40.7327 136.832 41.1043 135.5 41.8477C134.201 42.591 133.161 43.6413 132.382 44.9986C131.635 46.3236 131.261 47.9072 131.261 49.7493C131.261 51.5591 131.635 53.1588 132.382 54.5485C133.161 55.9058 134.201 56.9561 135.5 57.6995C136.832 58.4428 138.31 58.8144 139.934 58.8144Z"
          fill="#FFCC00"/>
    <path d="M93.6606 62.5956V36.903H117.582V62.5956H112.905V39.8116L114.026 40.9751H97.2172L98.3378 39.8116V62.5956H93.6606Z"
          fill="#FFCC00"/>
    <path d="M77.0815 62.8864C74.4506 62.8864 72.0957 62.3209 70.017 61.1898C67.9707 60.0586 66.3629 58.5074 65.1936 56.536C64.0243 54.5646 63.4397 52.3024 63.4397 49.7493C63.4397 47.1962 64.0243 44.934 65.1936 42.9626C66.3629 40.9912 67.9707 39.4562 70.017 38.3574C72.0957 37.2262 74.4506 36.6607 77.0815 36.6607C79.4201 36.6607 81.4988 37.1293 83.3177 38.0665C85.1691 38.9714 86.5983 40.3287 87.6051 42.1385L84.0485 44.4169C83.2041 43.1565 82.1647 42.2355 80.9304 41.6537C79.7286 41.0397 78.4294 40.7327 77.0328 40.7327C75.3438 40.7327 73.8334 41.1043 72.5017 41.8477C71.17 42.591 70.1144 43.6413 69.3349 44.9986C68.5554 46.3236 68.1656 47.9072 68.1656 49.7493C68.1656 51.5914 68.5554 53.1911 69.3349 54.5485C70.1144 55.9058 71.17 56.9561 72.5017 57.6995C73.8334 58.4428 75.3438 58.8144 77.0328 58.8144C78.4294 58.8144 79.7286 58.5236 80.9304 57.9418C82.1647 57.3278 83.2041 56.3906 84.0485 55.1302L87.6051 57.3601C86.5983 59.1376 85.1691 60.5111 83.3177 61.4806C81.4988 62.4178 79.4201 62.8864 77.0815 62.8864Z"
          fill="#FFCC00"/>
    <path d="M56.2739 62.5956L46.2862 50.0886L50.1351 47.7618L61.7794 62.5956H56.2739ZM37.5652 62.5956V36.903H42.2424V62.5956H37.5652ZM40.8295 51.7368V47.7618H49.3556V51.7368H40.8295ZM50.5249 50.2825L46.1887 49.7008L56.079 36.903H61.0973L50.5249 50.2825Z"
          fill="#FFCC00"/>
    <path d="M8.91588 47.3255V43.3504H27.1861V47.3255H8.91588ZM13.3007 28.2742C15.7693 28.2742 18.0429 28.7105 20.1216 29.5831C22.2004 30.4234 24.0031 31.6353 25.5296 33.2188C27.0887 34.7701 28.2905 36.596 29.135 38.6967C30.0119 40.7973 30.4504 43.108 30.4504 45.6288C30.4504 48.1496 30.0119 50.4603 29.135 52.5609C28.2905 54.6616 27.0887 56.5037 25.5296 58.0872C24.0031 59.6385 22.2004 60.8504 20.1216 61.723C18.0429 62.5632 15.7693 62.9834 13.3007 62.9834C10.5724 62.9834 8.05515 62.5309 5.74904 61.626C3.47541 60.7211 1.55906 59.3961 0 57.651L3.0694 54.5969C4.43358 55.9866 5.94392 57.0046 7.60043 57.651C9.28941 58.2973 11.1083 58.6205 13.0571 58.6205C14.8436 58.6205 16.5001 58.2973 18.0266 57.651C19.5532 57.0046 20.8687 56.1159 21.973 54.9848C23.1098 53.8213 23.9868 52.4478 24.6039 50.8643C25.2211 49.2484 25.5296 47.5032 25.5296 45.6288C25.5296 43.7544 25.2211 42.0254 24.6039 40.4418C23.9868 38.8259 23.1098 37.4524 21.973 36.3213C20.8687 35.1579 19.5532 34.253 18.0266 33.6066C16.5001 32.9603 14.8436 32.6371 13.0571 32.6371C11.1083 32.6371 9.28941 32.9603 7.60043 33.6066C5.94392 34.253 4.43358 35.271 3.0694 36.6607L0 33.6066C1.55906 31.8615 3.47541 30.5365 5.74904 29.6316C8.05515 28.7267 10.5724 28.2742 13.3007 28.2742Z"
          fill="#FFCC00"/>
    <path d="M154.982 0C156.568 0 158.005 0.93764 158.643 2.38995L167.116 21.658C168.278 24.3015 166.342 27.268 163.454 27.268H76.6577C73.7699 27.268 71.8337 24.3015 72.9961 21.658L81.4683 2.38995C82.1069 0.937639 83.5434 0 85.1299 0H154.982ZM86.1261 1.51489C84.5396 1.51489 83.103 2.45253 82.4645 3.90484L75.3244 20.1431C74.1621 22.7866 76.0983 25.7531 78.9861 25.7531H161.126C164.013 25.7531 165.95 22.7866 164.787 20.1431L157.647 3.90484C157.009 2.45253 155.572 1.51489 153.986 1.51489H86.1261Z"
          fill="url(#paint0_linear_23_382)"/>
    <path d="M86.1261 1.51489C84.5396 1.51489 83.103 2.45253 82.4645 3.90484L75.3244 20.1431C74.1621 22.7866 76.0983 25.7531 78.9861 25.7531H161.126C164.013 25.7531 165.95 22.7866 164.787 20.1431L157.647 3.90484C157.009 2.45253 155.572 1.51489 153.986 1.51489H86.1261Z"
          fill="url(#paint1_linear_23_382)"/>
    <path d="M141.091 7.01428V18.1334L150.414 7.04944L150.444 7.01428H151.298V19.7936H150.294V8.67053L140.945 19.7584L140.915 19.7936H140.087V7.01428H141.091Z"
          fill="black" stroke="black" stroke-width="0.2"/>
    <path d="M131.715 6.91733C132.686 6.91735 133.584 7.10541 134.409 7.48276C135.237 7.84513 135.926 8.38909 136.472 9.11362L136.53 9.18979L136.456 9.25131L135.847 9.7601L135.764 9.82944L135.701 9.74155C135.241 9.09328 134.662 8.62009 133.965 8.32065H133.964C133.28 8.01977 132.531 7.86852 131.715 7.8685C130.692 7.8685 129.775 8.09879 128.963 8.55795C128.151 9.0173 127.506 9.66696 127.028 10.5081L127.027 10.5072C126.565 11.3303 126.334 12.2914 126.334 13.3919C126.334 14.4913 126.566 15.4591 127.027 16.2982C127.505 17.1231 128.15 17.7735 128.962 18.2494H128.963C129.775 18.7085 130.692 18.9388 131.715 18.9388C132.531 18.9388 133.28 18.7876 133.964 18.4867C134.662 18.1708 135.242 17.6981 135.702 17.0658L135.764 16.9808L135.845 17.0462L136.454 17.5306L136.53 17.5912L136.473 17.6683C135.927 18.4092 135.239 18.9619 134.41 19.3246C133.585 19.686 132.686 19.8665 131.715 19.8665C130.498 19.8665 129.4 19.5963 128.426 19.054L128.425 19.0531C127.468 18.4948 126.708 17.7303 126.148 16.7621L126.147 16.7611C125.602 15.7751 125.33 14.6508 125.33 13.3919C125.33 12.1329 125.601 11.0165 126.147 10.0462V10.0453C126.707 9.06088 127.467 8.29659 128.425 7.75424C129.4 7.19541 130.497 6.91733 131.715 6.91733Z"
          fill="black" stroke="black" stroke-width="0.2"/>
    <path d="M114.566 7.01428V12.8551H117.678L122.648 7.04846L122.677 7.01428H123.867L123.725 7.17932L118.497 13.2574L124.114 19.6276L124.26 19.7936H123.02L122.99 19.7594L117.671 13.7584H114.566V19.7936H113.562V7.01428H114.566Z"
          fill="black" stroke="black" stroke-width="0.2"/>
    <path d="M103.813 6.91733C105.34 6.91734 106.522 7.30918 107.343 8.10873H107.342C108.179 8.89279 108.591 10.0455 108.591 11.5492V19.7933H107.611V17.5599C107.274 18.1135 106.823 18.5864 106.258 18.9759C105.393 19.5717 104.308 19.8665 103.01 19.8665C102.042 19.8665 101.207 19.7197 100.51 19.4222L100.509 19.4212C99.8282 19.1238 99.3008 18.7006 98.9316 18.1497L98.9307 18.1488C98.5623 17.5823 98.379 16.9407 98.3789 16.2279C98.3789 15.5972 98.529 15.0144 98.8301 14.4818C99.1346 13.9269 99.6312 13.4939 100.312 13.18L100.585 13.0638C101.247 12.8104 102.081 12.6859 103.083 12.6859H107.587V11.5492C107.587 10.3226 107.259 9.40721 106.618 8.78549C105.977 8.16304 105.039 7.84409 103.789 7.84409C102.875 7.84409 102.044 8.00338 101.295 8.32065L101.293 8.32162C100.54 8.62468 99.8921 9.0228 99.3496 9.51498L99.2686 9.58823L99.2021 9.50131L98.7637 8.91928L98.71 8.84799L98.7754 8.78647C99.3107 8.28263 99.9525 7.87426 100.699 7.56088L101.026 7.43198C101.915 7.08855 102.844 6.91733 103.813 6.91733ZM103.083 13.5404C101.71 13.5404 100.758 13.798 100.201 14.2904C99.655 14.7877 99.3828 15.4149 99.3828 16.179C99.3828 17.0384 99.7025 17.7195 100.343 18.2328L100.466 18.3236C101.098 18.7628 101.96 18.9876 103.059 18.9876C104.212 18.9876 105.157 18.7323 105.899 18.2298C106.641 17.7118 107.204 16.9818 107.587 16.0355V13.5404H103.083Z"
          fill="black" stroke="black" stroke-width="0.2"/>
    <path d="M97.1321 7.01428V7.94104H92.0891V19.7936H91.0852V7.94104H86.0188V7.01428H97.1321Z" fill="black"
          stroke="black" stroke-width="0.2"/>
    <defs>
        <linearGradient id="paint0_linear_23_382" x1="70.5293" y1="13.634" x2="169.582" y2="13.634"
                        gradientUnits="userSpaceOnUse">
            <stop stop-color="#FFCC00"/>
            <stop offset="1" stop-color="#FF6600"/>
        </linearGradient>
        <linearGradient id="paint1_linear_23_382" x1="70.5293" y1="13.634" x2="169.582" y2="13.634"
                        gradientUnits="userSpaceOnUse">
            <stop stop-color="#FFCC00"/>
            <stop offset="1" stop-color="#FF6600"/>
        </linearGradient>
    </defs>
</svg>
