<svg width="34" height="32" viewBox="0 0 34 32" fill="none" xmlns="http://www.w3.org/2000/svg">
    <path d="M15.9326 0.683738C16.2365 -0.228052 17.5262 -0.228052 17.8301 0.683738L21.1437 10.6272C21.2798 11.0356 21.662 11.3111 22.0924 11.3111H32.7608C33.7357 11.3111 34.1343 12.5636 33.3389 13.1271L24.7519 19.2099C24.3925 19.4645 24.242 19.9243 24.3812 20.3421L27.6714 30.215C27.9769 31.1319 26.9333 31.9058 26.1446 31.3472L17.4594 25.1947C17.1131 24.9494 16.6496 24.9494 16.3033 25.1947L7.61807 31.3472C6.82944 31.9058 5.78577 31.1319 6.09132 30.215L9.38147 20.3421C9.52072 19.9243 9.3702 19.4645 9.01081 19.2099L0.423828 13.1271C-0.371651 12.5636 0.0270255 11.3111 1.00187 11.3111H11.6703C12.1007 11.3111 12.4829 11.0356 12.619 10.6272L15.9326 0.683738Z"
          fill="#FFCC00"/>
</svg>
